<svg width="13" height="28" viewBox="0 0 13 28" fill="none" xmlns="http://www.w3.org/2000/svg">
<g id="formkit:down" clip-path="url(#clip0_2_14581)">
<path id="Vector" d="M1.12496 14C1.12356 13.8852 1.14619 13.7715 1.1914 13.666C1.23661 13.5605 1.30339 13.4656 1.38746 13.3875L9.26246 5.5125C9.61246 5.1625 10.155 5.1625 10.505 5.5125C10.855 5.8625 10.855 6.405 10.505 6.755L3.24246 14.0175L10.4875 21.2625C10.8375 21.6125 10.8375 22.155 10.4875 22.505C10.1375 22.855 9.59496 22.855 9.24496 22.505L1.36996 14.63C1.19496 14.455 1.10746 14.2275 1.10746 14.0175L1.12496 14Z" fill="#964B00"/>
</g>
<defs>
<clipPath id="clip0_2_14581">
<rect width="28" height="12.25" fill="white" transform="matrix(0 1 -1 0 12.5 0)"/>
</clipPath>
</defs>
</svg>
