<svg width="31" height="34" viewBox="0 0 31 34" fill="none" xmlns="http://www.w3.org/2000/svg">
<g id="Group 32">
<path id="Vector" d="M15.1287 21.9512C14.052 21.0671 12.8791 20.8745 11.6099 21.3737" stroke="#834FF6" stroke-width="2"/>
<path id="Vector_2" d="M15.4604 0.513672C16.0879 0.513672 16.7118 0.513672 17.3321 0.513672C21.0471 0.905844 24.6622 1.71871 28.1775 2.95227C29.8389 3.53697 30.773 4.58514 30.9797 6.09678C31.0368 6.52461 30.9726 7.79739 30.7872 9.91512C29.953 19.1989 25.6426 26.832 17.8562 32.8144C16.7082 33.7057 15.5317 33.7449 14.3267 32.9321C6.09105 27.3918 1.59533 18.7283 0.839502 6.94174C0.732546 5.30887 1.4135 4.12879 2.88237 3.40149C6.36914 1.67593 10.5618 0.713323 15.4604 0.513672ZM27.386 4.68496C19.236 1.44063 11.2107 1.66523 3.31019 5.35879C3.01071 5.50852 2.8182 5.79731 2.8075 6.12887C2.44385 16.7532 6.53313 25.1564 15.0754 31.3384C15.5139 31.6593 16.1128 31.6593 16.5621 31.3491C24.5196 25.7874 28.7729 17.9047 29.3219 7.70112C29.3932 6.23226 28.7479 5.22687 27.386 4.68496Z" fill="#133D7A"/>
<path id="Vector_3" d="M11.9307 16.7053C11.2569 16.4272 10.8719 15.732 10.9895 15.0154C11.5314 11.714 13.0466 9.2291 15.5352 7.56058C15.8489 7.34667 16.1876 7.24684 16.5512 7.2611C17.8561 7.31815 17.9096 7.75667 16.7117 8.57666C16.4122 8.77988 16.1983 9.05797 16.102 9.36814C15.5031 11.3361 15.1501 13.354 15.0432 15.4219C14.9576 17.0832 13.9201 17.5111 11.9307 16.7053Z" fill="#B33EED" fill-opacity="0.996"/>
<path id="Vector_4" d="M23.7067 18.472C22.4946 20.4186 21.7316 20.5148 21.4179 18.7608C21.3644 18.472 21.5462 18.1939 21.8457 18.0869C22.6372 17.8017 23.1327 17.2883 23.3324 16.5468C23.4072 16.2473 23.2575 15.9157 22.958 15.7339C21.646 14.9709 20.2378 14.5253 18.7333 14.3969C17.6637 14.3042 16.94 14.1438 16.5621 13.9156C15.521 13.2953 15.5567 12.4468 16.669 11.3701C16.915 11.1348 17.2466 10.9957 17.5995 11.0064C19.0755 11.0421 20.3911 11.4699 21.5462 12.2899C22.7227 13.1242 23.5427 13.9049 24.0062 14.6322C24.7121 15.7375 24.6123 17.0174 23.7067 18.472Z" fill="#EE344E"/>
<path id="Vector_5" d="M15.1288 21.9462C14.0521 21.062 12.8792 20.8695 11.6099 21.3686C11.3105 20.9622 10.5439 20.2277 9.31039 19.1653C6.91457 17.0975 6.78979 14.9477 8.93604 12.7158C9.18204 12.4592 9.5136 12.3308 9.84517 12.3736C11.2356 12.5305 10.8577 13.3219 8.71143 14.748C8.15526 15.1117 8.16596 15.9352 8.72213 16.2989C11.2178 17.9032 13.9808 18.5735 17.0112 18.3097C20.2057 18.0244 20.8795 18.9371 19.0327 21.0477C18.8295 21.2723 18.5193 21.4328 18.145 21.4862L15.1288 21.9462Z" fill="#5460FF"/>
<path id="Vector_6" d="M15.1287 21.9512C15.3854 23.3773 16.1519 23.9335 17.4283 23.6197C17.7385 23.5449 18.0165 23.5663 18.1663 23.6732C18.423 23.8515 18.2518 24.0511 17.6529 24.2722C14.7722 25.3275 12.7579 24.3613 11.6099 21.3737C12.8791 20.8745 14.052 21.0671 15.1287 21.9512Z" fill="#B33EED" fill-opacity="0.996"/>
</g>
</svg>
