
<svg width="19" height="17" viewBox="0 0 19 17" fill="none" xmlns="http://www.w3.org/2000/svg">
<g id="Group 1">
<path id="Vector" d="M17.5194 0.881336L16.7835 0.145393C16.5755 -0.0625975 16.1915 -0.0305884 15.9515 0.257357L13.3913 2.80132C12.2392 2.30538 10.9754 2.06538 9.64731 2.06538C5.69519 2.08132 2.27141 4.38529 0.62329 7.69749C0.527263 7.90549 0.527263 8.16142 0.62329 8.3374C1.39122 9.90543 2.54329 11.2015 3.9833 12.1774L1.8873 14.3054C1.6473 14.5454 1.61529 14.9293 1.77534 15.1374L2.51128 15.8733C2.71928 16.0813 3.10326 16.0493 3.34326 15.7613L17.3912 1.71345C17.6952 1.47358 17.7272 1.08962 17.5192 0.881611L17.5194 0.881336ZM10.4953 5.71322C10.2233 5.6492 9.93534 5.56925 9.66332 5.56925C8.30327 5.56925 7.21538 6.65727 7.21538 8.01718C7.21538 8.28919 7.2794 8.57714 7.35935 8.84916L6.28724 9.90519C5.96728 9.34524 5.7913 8.72114 5.7913 8.01722C5.7913 5.88924 7.50332 4.17722 9.6313 4.17722C10.3354 4.17722 10.9593 4.3532 11.5193 4.67316L10.4953 5.71322Z" fill="#666666" fill-opacity="0.8"/>
<path id="Vector_2" d="M18.6714 7.69743C18.1114 6.57738 17.3753 5.56945 16.4634 4.75342L13.4874 7.69743V8.01738C13.4874 10.1454 11.7754 11.8574 9.64739 11.8574H9.32744L7.43945 13.7454C8.14351 13.8893 8.87946 13.9854 9.59946 13.9854C13.5516 13.9854 16.9754 11.6814 18.6235 8.35325C18.7675 8.12918 18.7675 7.90527 18.6714 7.69726L18.6714 7.69743Z" fill="#666666" fill-opacity="0.8"/>
</g>
</svg>
