<svg width="21" height="21" viewBox="0 0 21 21" fill="none" xmlns="http://www.w3.org/2000/svg">
<g id="fa:facebook-square" clip-path="url(#clip0_2_14183)">
<path id="Vector" d="M17.0278 0.500977C18.0608 0.500977 18.9441 0.86773 19.6776 1.60124C20.4111 2.33474 20.7778 3.21799 20.7778 4.25098V16.751C20.7778 17.784 20.4111 18.6672 19.6776 19.4007C18.9441 20.1342 18.0608 20.501 17.0278 20.501H14.5799V12.7536H17.1711L17.5617 9.73275H14.5799V7.80566C14.5799 7.31955 14.6819 6.95497 14.8859 6.71191C15.0899 6.46886 15.487 6.34733 16.0773 6.34733L17.6659 6.33431V3.639C17.119 3.56087 16.3464 3.52181 15.3481 3.52181C14.1676 3.52181 13.2236 3.86903 12.5161 4.56348C11.8086 5.25792 11.4549 6.23882 11.4549 7.50618V9.73275H8.85075V12.7536H11.4549V20.501H4.52783C3.49485 20.501 2.6116 20.1342 1.87809 19.4007C1.14459 18.6672 0.777832 17.784 0.777832 16.751V4.25098C0.777832 3.21799 1.14459 2.33474 1.87809 1.60124C2.6116 0.86773 3.49485 0.500977 4.52783 0.500977H17.0278Z" fill="#4B4BBE"/>
</g>
<defs>
<clipPath id="clip0_2_14183">
<rect width="20" height="20" fill="white" transform="translate(0.777832 0.500977)"/>
</clipPath>
</defs>
</svg>
