<svg width="21" height="21" viewBox="0 0 21 21" fill="none" xmlns="http://www.w3.org/2000/svg">
<g id="skill-icons:instagram" clip-path="url(#clip0_2_14190)">
<g id="Group">
<path id="Vector" d="M16.0903 0.500977H5.46533C2.8765 0.500977 0.777832 2.59964 0.777832 5.18848V15.8135C0.777832 18.4023 2.8765 20.501 5.46533 20.501H16.0903C18.6792 20.501 20.7778 18.4023 20.7778 15.8135V5.18848C20.7778 2.59964 18.6792 0.500977 16.0903 0.500977Z" fill="url(#paint0_radial_2_14190)"/>
<path id="Vector_2" d="M16.0903 0.500977H5.46533C2.8765 0.500977 0.777832 2.59964 0.777832 5.18848V15.8135C0.777832 18.4023 2.8765 20.501 5.46533 20.501H16.0903C18.6792 20.501 20.7778 18.4023 20.7778 15.8135V5.18848C20.7778 2.59964 18.6792 0.500977 16.0903 0.500977Z" fill="url(#paint1_radial_2_14190)"/>
<path id="Vector_3" d="M10.7785 2.68848C8.65682 2.68848 8.39049 2.69777 7.55721 2.73566C6.72549 2.77379 6.15775 2.90543 5.66104 3.09863C5.14713 3.29816 4.71127 3.56512 4.27705 3.99949C3.84244 4.43379 3.57549 4.86965 3.37533 5.38332C3.18158 5.8802 3.04979 6.44816 3.01236 7.27949C2.9751 8.11285 2.96533 8.37926 2.96533 10.5011C2.96533 12.6229 2.97471 12.8883 3.01252 13.7216C3.0508 14.5533 3.18244 15.1211 3.37549 15.6178C3.57518 16.1317 3.84213 16.5675 4.2765 17.0018C4.71064 17.4364 5.1465 17.7039 5.66002 17.9035C6.15713 18.0967 6.72494 18.2283 7.5565 18.2664C8.38986 18.3043 8.65596 18.3136 10.7776 18.3136C12.8996 18.3136 13.165 18.3043 13.9983 18.2664C14.83 18.2283 15.3984 18.0967 15.8955 17.9035C16.4092 17.7039 16.8444 17.4364 17.2785 17.0018C17.7131 16.5675 17.9799 16.1317 18.1802 15.618C18.3722 15.1211 18.5041 14.5532 18.5431 13.7218C18.5806 12.8885 18.5903 12.6229 18.5903 10.5011C18.5903 8.37926 18.5806 8.11301 18.5431 7.27965C18.5041 6.44793 18.3722 5.88027 18.1802 5.38355C17.9799 4.86965 17.7131 4.43379 17.2785 3.99949C16.8439 3.56496 16.4093 3.29801 15.895 3.09871C15.397 2.90543 14.8289 2.77371 13.9972 2.73566C13.1638 2.69777 12.8985 2.68848 10.7761 2.68848H10.7785ZM10.0777 4.09637C10.2857 4.09605 10.5178 4.09637 10.7785 4.09637C12.8646 4.09637 13.1117 4.10387 13.9355 4.14129C14.6972 4.17613 15.1106 4.3034 15.386 4.41035C15.7506 4.55191 16.0106 4.72121 16.2838 4.99473C16.5573 5.26816 16.7265 5.52855 16.8685 5.89316C16.9754 6.16816 17.1028 6.5816 17.1375 7.34332C17.1749 8.16691 17.1831 8.41426 17.1831 10.4993C17.1831 12.5843 17.1749 12.8317 17.1375 13.6552C17.1027 14.4169 16.9754 14.8304 16.8685 15.1054C16.7269 15.47 16.5573 15.7296 16.2838 16.0029C16.0104 16.2764 15.7508 16.4456 15.386 16.5872C15.111 16.6946 14.6972 16.8216 13.9355 16.8564C13.1119 16.8939 12.8646 16.902 10.7785 16.902C8.69244 16.902 8.44518 16.8939 7.62166 16.8564C6.85994 16.8213 6.4465 16.694 6.17088 16.5871C5.80635 16.4454 5.54588 16.2762 5.27244 16.0028C4.999 15.7293 4.82979 15.4696 4.68783 15.1048C4.58088 14.8297 4.45346 14.4163 4.41877 13.6546C4.38135 12.831 4.37385 12.5836 4.37385 10.4973C4.37385 8.41106 4.38135 8.16496 4.41877 7.34137C4.45361 6.57965 4.58088 6.16621 4.68783 5.89082C4.82947 5.52621 4.999 5.26582 5.27252 4.99238C5.54596 4.71895 5.80635 4.54965 6.17096 4.40777C6.44635 4.30035 6.85994 4.1734 7.62166 4.1384C8.34236 4.10582 8.62166 4.09605 10.0777 4.09441V4.09637ZM14.9488 5.39355C14.4313 5.39355 14.0113 5.81309 14.0113 6.33074C14.0113 6.84832 14.4313 7.26824 14.9488 7.26824C15.4664 7.26824 15.8863 6.84832 15.8863 6.33074C15.8863 5.81316 15.4664 5.39324 14.9488 5.39324V5.39355ZM10.7785 6.48895C8.56291 6.48895 6.7665 8.28535 6.7665 10.5011C6.7665 12.7168 8.56291 14.5123 10.7785 14.5123C12.9942 14.5123 14.79 12.7168 14.79 10.5011C14.79 8.28543 12.9941 6.48895 10.7784 6.48895H10.7785ZM10.7785 7.89684C12.2167 7.89684 13.3828 9.0627 13.3828 10.5011C13.3828 11.9393 12.2167 13.1053 10.7785 13.1053C9.34025 13.1053 8.17439 11.9393 8.17439 10.5011C8.17439 9.0627 9.34025 7.89684 10.7785 7.89684Z" fill="white"/>
</g>
</g>
<defs>
<radialGradient id="paint0_radial_2_14190" cx="0" cy="0" r="1" gradientUnits="userSpaceOnUse" gradientTransform="translate(6.09033 22.0414) rotate(-90) scale(19.8215 18.4355)">
<stop stop-color="#FFDD55"/>
<stop offset="0.1" stop-color="#FFDD55"/>
<stop offset="0.5" stop-color="#FF543E"/>
<stop offset="1" stop-color="#C837AB"/>
</radialGradient>
<radialGradient id="paint1_radial_2_14190" cx="0" cy="0" r="1" gradientUnits="userSpaceOnUse" gradientTransform="translate(-2.57225 1.94168) rotate(78.681) scale(8.86031 36.5225)">
<stop stop-color="#3771C8"/>
<stop offset="0.128" stop-color="#3771C8"/>
<stop offset="1" stop-color="#6600FF" stop-opacity="0"/>
</radialGradient>
<clipPath id="clip0_2_14190">
<rect width="20" height="20" fill="white" transform="translate(0.777832 0.500977)"/>
</clipPath>
</defs>
</svg>
