<svg width="21" height="21" viewBox="0 0 21 21" fill="none" xmlns="http://www.w3.org/2000/svg">
<g id="skill-icons:linkedin" clip-path="url(#clip0_2_14185)">
<g id="Group">
<path id="Vector" d="M16.0903 0.500977H5.46533C2.8765 0.500977 0.777832 2.59964 0.777832 5.18848V15.8135C0.777832 18.4023 2.8765 20.501 5.46533 20.501H16.0903C18.6792 20.501 20.7778 18.4023 20.7778 15.8135V5.18848C20.7778 2.59964 18.6792 0.500977 16.0903 0.500977Z" fill="white"/>
<path id="Vector_2" d="M16.0903 0.500977H5.46533C2.8765 0.500977 0.777832 2.59964 0.777832 5.18848V15.8135C0.777832 18.4023 2.8765 20.501 5.46533 20.501H16.0903C18.6792 20.501 20.7778 18.4023 20.7778 15.8135V5.18848C20.7778 2.59964 18.6792 0.500977 16.0903 0.500977Z" fill="#0A66C2"/>
<path id="Vector_3" d="M15.2087 17.5076H17.4954C17.5783 17.5076 17.6578 17.4747 17.7164 17.4161C17.775 17.3575 17.8079 17.2781 17.8079 17.1952L17.8091 12.3638C17.8091 9.83855 17.2649 7.89754 14.3139 7.89754C13.1921 7.85582 12.1342 8.4341 11.5634 9.39973C11.5606 9.40442 11.5563 9.40807 11.5513 9.41012C11.5462 9.41216 11.5406 9.4125 11.5354 9.41108C11.5301 9.40965 11.5254 9.40654 11.5221 9.40222C11.5188 9.3979 11.5169 9.39261 11.5169 9.38715V8.44316C11.5169 8.36028 11.484 8.2808 11.4254 8.22219C11.3668 8.16359 11.2873 8.13066 11.2044 8.13066H9.03432C8.95144 8.13066 8.87195 8.16359 8.81335 8.22219C8.75474 8.2808 8.72182 8.36028 8.72182 8.44316V17.1947C8.72182 17.2776 8.75474 17.3571 8.81335 17.4157C8.87195 17.4743 8.95144 17.5072 9.03432 17.5072H11.3209C11.4038 17.5072 11.4832 17.4743 11.5419 17.4157C11.6005 17.3571 11.6334 17.2776 11.6334 17.1947V12.8687C11.6334 11.6455 11.8654 10.4609 13.3819 10.4609C14.8768 10.4609 14.8962 11.8606 14.8962 12.9479V17.1951C14.8962 17.278 14.9291 17.3575 14.9877 17.4161C15.0463 17.4747 15.1258 17.5076 15.2087 17.5076ZM3.74658 5.15934C3.74658 6.08629 4.50963 6.84895 5.43658 6.84895C6.3633 6.84887 7.12588 6.08574 7.12588 5.15902C7.12572 4.2323 6.36307 3.46973 5.43627 3.46973C4.50924 3.46973 3.74658 4.23246 3.74658 5.15934ZM4.29025 17.5076H6.57986C6.66274 17.5076 6.74223 17.4747 6.80083 17.4161C6.85944 17.3575 6.89236 17.278 6.89236 17.1951V8.44316C6.89236 8.36028 6.85944 8.2808 6.80083 8.22219C6.74223 8.16359 6.66274 8.13066 6.57986 8.13066H4.29025C4.20737 8.13066 4.12789 8.16359 4.06928 8.22219C4.01068 8.2808 3.97775 8.36028 3.97775 8.44316V17.1951C3.97775 17.278 4.01068 17.3575 4.06928 17.4161C4.12789 17.4747 4.20737 17.5076 4.29025 17.5076Z" fill="white"/>
</g>
</g>
<defs>
<clipPath id="clip0_2_14185">
<rect width="20" height="20" fill="white" transform="translate(0.777832 0.500977)"/>
</clipPath>
</defs>
</svg>
