<svg width="25" height="25" viewBox="0 0 25 25" fill="none" xmlns="http://www.w3.org/2000/svg">
<g id="uil:snapchat-square">
<path id="Vector" d="M22.7509 7.18098C22.7499 6.82113 22.7171 6.46207 22.6529 6.10798C22.581 5.6746 22.4441 5.25455 22.2469 4.86198C22.0312 4.44961 21.7502 4.07479 21.4149 3.75198C20.9086 3.25642 20.2832 2.89963 19.5989 2.71598C18.9707 2.56362 18.3252 2.4947 17.6789 2.51098L17.6759 2.50098H7.87694V2.51098C7.50932 2.50834 7.14181 2.52502 6.77594 2.56098C6.3751 2.60348 5.98049 2.69206 5.59994 2.82498C4.97287 3.06132 4.41037 3.44219 3.95809 3.93669C3.50582 4.43118 3.17653 5.02536 2.99694 5.67098C2.84565 6.29429 2.77672 6.93475 2.79194 7.57598L2.78594 17.414C2.78444 17.8599 2.81451 18.3053 2.87594 18.747C2.94312 19.2136 3.08139 19.6672 3.28594 20.092C3.57389 20.6595 3.98407 21.156 4.48694 21.546C4.84649 21.8321 5.25375 22.0525 5.68994 22.197C6.32979 22.3946 6.99629 22.4924 7.66594 22.487C8.08594 22.49 8.50494 22.501 8.92394 22.499C11.9709 22.486 15.0179 22.521 18.0639 22.48C18.4668 22.4713 18.8682 22.4289 19.2639 22.353C20.0111 22.2212 20.7064 21.8828 21.2709 21.376C21.936 20.7976 22.4003 20.0231 22.5969 19.164C22.7182 18.5887 22.7763 18.0019 22.7699 17.414V17.297C22.7699 17.251 22.7529 7.31298 22.7509 7.18198V7.18098ZM20.0749 16.431C19.9469 16.731 19.3009 16.979 18.2069 17.148C18.1049 17.164 18.0609 17.33 18.0019 17.602C17.9779 17.714 17.9519 17.824 17.9189 17.939C17.9089 17.9877 17.8814 18.031 17.8416 18.0608C17.8018 18.0907 17.7525 18.1049 17.7029 18.101H17.6849C17.5806 18.0969 17.4769 18.0836 17.3749 18.061C17.1049 18.0047 16.8298 17.9759 16.5539 17.975C16.3556 17.9755 16.1576 17.9922 15.9619 18.025C15.5493 18.1296 15.1654 18.3258 14.8389 18.599C14.287 19.0698 13.5937 19.3429 12.8689 19.375C12.8316 19.3749 12.7942 19.3739 12.7569 19.372C12.7327 19.374 12.7083 19.375 12.6839 19.375C11.9591 19.3432 11.2657 19.0701 10.7139 18.599C10.3874 18.3259 10.0036 18.1297 9.59094 18.025C9.39531 17.9922 9.19731 17.9755 8.99894 17.975C8.72315 17.978 8.44839 18.0091 8.17894 18.068C8.07674 18.0916 7.97268 18.1063 7.86794 18.112C7.81517 18.1182 7.76198 18.1045 7.71873 18.0736C7.67547 18.0428 7.64525 17.9969 7.63394 17.945C7.60143 17.8329 7.57374 17.7194 7.55094 17.605C7.49094 17.332 7.44794 17.165 7.34594 17.149C6.25194 16.981 5.60594 16.732 5.47694 16.431C5.46373 16.4009 5.45594 16.3688 5.45394 16.336C5.45164 16.2927 5.46536 16.2502 5.49248 16.2164C5.5196 16.1826 5.55822 16.1601 5.60094 16.153C6.50566 15.9893 7.32093 15.5046 7.89694 14.788C8.21327 14.4211 8.4762 14.0114 8.67794 13.571L8.68194 13.563C8.74163 13.4654 8.77927 13.3559 8.79223 13.2423C8.80518 13.1286 8.79314 13.0135 8.75694 12.905C8.61694 12.573 8.14994 12.425 7.84094 12.327C7.77118 12.306 7.70214 12.2826 7.63394 12.257C7.35994 12.149 6.90994 11.92 6.96994 11.605C7.01575 11.4862 7.09755 11.3848 7.20388 11.3149C7.31022 11.2449 7.43577 11.21 7.56294 11.215C7.62486 11.2136 7.68633 11.2259 7.74294 11.251C7.97327 11.369 8.22638 11.4359 8.48494 11.447C8.63893 11.458 8.79152 11.4113 8.91294 11.316C8.90494 11.17 8.89594 11.024 8.88594 10.878C8.74552 9.89243 8.80573 8.88867 9.06294 7.92698C9.36526 7.23637 9.86432 6.65013 10.4978 6.24144C11.1313 5.83276 11.8711 5.61973 12.6249 5.62898L12.9199 5.62698C13.6746 5.61733 14.4154 5.83012 15.0499 6.23878C15.6844 6.64745 16.1846 7.2339 16.4879 7.92498C16.7451 8.88806 16.805 9.89318 16.6639 10.88L16.6609 10.927L16.6379 11.316C16.7481 11.4033 16.8854 11.4493 17.0259 11.446C17.2698 11.4276 17.5077 11.3614 17.7259 11.251C17.7978 11.2196 17.8755 11.2039 17.9539 11.205C18.0434 11.2047 18.132 11.2217 18.2149 11.255L18.2189 11.257C18.3128 11.2793 18.3978 11.3291 18.4631 11.4C18.5285 11.4709 18.5713 11.5597 18.5859 11.655C18.5889 11.808 18.4759 12.036 17.9169 12.257C17.8599 12.279 17.7869 12.303 17.7099 12.327C17.3999 12.425 16.9339 12.573 16.7939 12.905C16.7577 13.0133 16.7455 13.1282 16.7583 13.2417C16.7711 13.3551 16.8085 13.4645 16.8679 13.562L16.8719 13.571C17.1514 14.2096 17.5748 14.7749 18.1089 15.2228C18.643 15.6707 19.2734 15.989 19.9509 16.153C19.9935 16.1603 20.0319 16.1829 20.0588 16.2167C20.0857 16.2504 20.0993 16.2929 20.0969 16.336C20.095 16.3691 20.0872 16.4016 20.0739 16.432L20.0749 16.431Z" fill="#FFD233"/>
</g>
</svg>
