<svg width="21" height="21" viewBox="0 0 21 21" fill="none" xmlns="http://www.w3.org/2000/svg">
<g id="skill-icons:twitter" clip-path="url(#clip0_2_14195)">
<g id="Group">
<path id="Vector" d="M16.0903 0.500977H5.46533C2.8765 0.500977 0.777832 2.59964 0.777832 5.18848V15.8135C0.777832 18.4023 2.8765 20.501 5.46533 20.501H16.0903C18.6792 20.501 20.7778 18.4023 20.7778 15.8135V5.18848C20.7778 2.59964 18.6792 0.500977 16.0903 0.500977Z" fill="white"/>
<path id="Vector_2" d="M16.0903 0.500977H5.46533C2.8765 0.500977 0.777832 2.59964 0.777832 5.18848V15.8135C0.777832 18.4023 2.8765 20.501 5.46533 20.501H16.0903C18.6792 20.501 20.7778 18.4023 20.7778 15.8135V5.18848C20.7778 2.59964 18.6792 0.500977 16.0903 0.500977Z" fill="#1D9BF0"/>
<path id="Vector_3" d="M16.3694 7.64246C16.378 7.76644 16.378 7.89043 16.378 8.01558C16.378 11.8278 13.4758 16.2246 8.169 16.2246V16.2222C6.60128 16.2245 5.06604 15.7755 3.74658 14.9289C3.97455 14.9563 4.20361 14.97 4.4333 14.9705C5.73265 14.9715 6.99461 14.5357 8.01643 13.7331C7.41439 13.7217 6.83096 13.5225 6.34771 13.1632C5.86445 12.804 5.50553 12.3028 5.32111 11.7296C5.75336 11.8129 6.19897 11.7959 6.62361 11.6799C5.27768 11.4079 4.30932 10.2253 4.30932 8.85191V8.81535C4.71056 9.03883 5.15961 9.16267 5.61869 9.17644C4.35104 8.32918 3.96025 6.64269 4.72572 5.3241C5.45004 6.21542 6.35376 6.94441 7.37818 7.46371C8.4026 7.983 9.5248 8.28099 10.6719 8.33832C10.5575 7.846 10.5744 7.33229 10.7209 6.84856C10.8673 6.36482 11.1383 5.92802 11.5065 5.58183C12.6685 4.48949 14.4961 4.5455 15.5885 5.70691C16.2346 5.57935 16.8541 5.34249 17.4206 5.00652C17.2052 5.67454 16.7545 6.24158 16.1523 6.60214C16.7242 6.53476 17.2827 6.38167 17.8091 6.148C17.4219 6.72785 16.9344 7.23388 16.3694 7.64246Z" fill="white"/>
</g>
</g>
<defs>
<clipPath id="clip0_2_14195">
<rect width="20" height="20" fill="white" transform="translate(0.777832 0.500977)"/>
</clipPath>
</defs>
</svg>
