<svg width="30" height="21" viewBox="0 0 30 21" fill="none" xmlns="http://www.w3.org/2000/svg">
<g id="logos:youtube-icon" clip-path="url(#clip0_2_14200)">
<path id="Vector" d="M28.5941 3.62042C28.4309 3.01748 28.1127 2.4678 27.671 2.02612C27.2293 1.58443 26.6797 1.26616 26.0767 1.10298C23.8694 0.500977 14.9856 0.500977 14.9856 0.500977C14.9856 0.500977 6.10141 0.519199 3.89408 1.1212C3.29113 1.28439 2.74146 1.60268 2.29979 2.04439C1.85812 2.48609 1.53988 3.0358 1.37674 3.63875C0.709076 7.56075 0.450076 13.537 1.39508 17.3021C1.55823 17.905 1.87648 18.4547 2.31815 18.8964C2.75981 19.3381 3.30948 19.6564 3.91241 19.8195C6.11974 20.4215 15.0037 20.4215 15.0037 20.4215C15.0037 20.4215 23.8876 20.4215 26.0949 19.8195C26.6978 19.6564 27.2475 19.3381 27.6892 18.8964C28.1309 18.4547 28.4491 17.905 28.6123 17.3021C29.3165 13.3745 29.5335 7.40198 28.5941 3.62042Z" fill="#FF0000"/>
<path id="Vector_2" d="M12.158 14.7298L19.5277 10.4612L12.158 6.1925V14.7298Z" fill="white"/>
</g>
<defs>
<clipPath id="clip0_2_14200">
<rect width="28.4444" height="20" fill="white" transform="translate(0.777832 0.500977)"/>
</clipPath>
</defs>
</svg>
