<svg width="24" height="25" viewBox="0 0 24 25" fill="none" xmlns="http://www.w3.org/2000/svg">
<g id="mdi:horoscope-cancer">
<path id="Vector" d="M12 4.33329C6.5 4.33329 2 7.91329 2 12.3333C2 14.4533 3.65 16.2033 5.76 16.3333H6C7.06087 16.3333 8.07828 15.9119 8.82843 15.1617C9.57857 14.4116 10 13.3942 10 12.3333C10 11.2724 9.57857 10.255 8.82843 9.50486C8.07828 8.75472 7.06087 8.33329 6 8.33329H5.76C7.44387 6.74448 9.68546 5.88234 12 5.93329C13.77 5.91329 15.5 6.40329 17 7.33329L18.25 6.08329C16.3781 4.91155 14.2082 4.30398 12 4.33329ZM6 10.3333C6.53043 10.3333 7.03914 10.544 7.41421 10.9191C7.78929 11.2941 8 11.8029 8 12.3333C8 13.4433 7.08 14.3333 6 14.3333C5.50247 14.3358 5.02187 14.1527 4.65205 13.8199C4.28223 13.4871 4.04975 13.0283 4 12.5333V12.1333C4.04975 11.6382 4.28223 11.1795 4.65205 10.8467C5.02187 10.5138 5.50247 10.3308 6 10.3333ZM18.24 8.33329H18C16.9391 8.33329 15.9217 8.75472 15.1716 9.50486C14.4214 10.255 14 11.2724 14 12.3333C14 13.3942 14.4214 14.4116 15.1716 15.1617C15.9217 15.9119 16.9391 16.3333 18 16.3333H18.24C16.5561 17.9221 14.3145 18.7842 12 18.7333C10.23 18.7533 8.5 18.2633 7 17.3333L5.76 18.5733C7.63 19.7433 9.79 20.3333 12 20.3333C17.5 20.3333 22 16.7533 22 12.3333C22 10.2133 20.35 8.46329 18.24 8.33329ZM18 14.3333C17.4696 14.3333 16.9609 14.1226 16.5858 13.7475C16.2107 13.3724 16 12.8637 16 12.3333C16 11.2233 16.92 10.3333 18 10.3333C18.4975 10.3308 18.9781 10.5138 19.348 10.8467C19.7178 11.1795 19.9503 11.6382 20 12.1333V12.5333C19.9503 13.0283 19.7178 13.4871 19.348 13.8199C18.9781 14.1527 18.4975 14.3358 18 14.3333Z" fill="#808080"/>
</g>
</svg>
