<svg width="38" height="38" viewBox="0 0 38 38" fill="none" xmlns="http://www.w3.org/2000/svg">
<path d="M11 26.5011C10.45 26.5011 9.979 26.3051 9.587 25.9131C9.195 25.5211 8.99934 25.0504 9 24.5011V12.5011C9 11.9511 9.196 11.4801 9.588 11.0881C9.98 10.6961 10.4507 10.5004 11 10.5011H27C27.55 10.5011 28.021 10.6971 28.413 11.0891C28.805 11.4811 29.0007 11.9518 29 12.5011V24.5011C29 25.0511 28.804 25.5221 28.412 25.9141C28.02 26.3061 27.5493 26.5018 27 26.5011H11ZM19 19.5011L11 14.5011V24.5011H27V14.5011L19 19.5011ZM19 17.5011L27 12.5011H11L19 17.5011ZM11 14.5011V12.5011V24.5011V14.5011Z" fill="#B3B3B3"/>
<rect x="0.5" y="0.5" width="37" height="37" rx="4.5" stroke="#909090"/>
</svg>
