<svg width="38" height="38" viewBox="0 0 38 38" fill="none" xmlns="http://www.w3.org/2000/svg">
<path d="M17.0231 10.8894C17.156 10.5611 17.3838 10.2799 17.6775 10.0819C17.9711 9.88396 18.3172 9.7782 18.6714 9.7782C19.0256 9.7782 19.3717 9.88396 19.6653 10.0819C19.959 10.2799 20.1869 10.5611 20.3197 10.8894C21.6344 11.2509 22.794 12.0341 23.6205 13.1185C24.447 14.2029 24.8946 15.5287 24.8947 16.8922V21.068L26.5234 23.5111C26.6127 23.645 26.664 23.8006 26.6718 23.9614C26.6797 24.1221 26.6437 24.282 26.5677 24.4239C26.4918 24.5658 26.3788 24.6845 26.2407 24.7672C26.1026 24.8499 25.9447 24.8936 25.7837 24.8935H21.7519C21.6449 25.6342 21.2746 26.3115 20.7088 26.8014C20.1431 27.2912 19.4198 27.5609 18.6714 27.5609C17.9231 27.5609 17.1997 27.2912 16.634 26.8014C16.0682 26.3115 15.6979 25.6342 15.5909 24.8935H11.5591C11.3981 24.8936 11.2402 24.8499 11.1021 24.7672C10.964 24.6845 10.851 24.5658 10.7751 24.4239C10.6991 24.282 10.6632 24.1221 10.671 23.9614C10.6788 23.8006 10.7301 23.645 10.8194 23.5111L12.4481 21.068V16.8922C12.4481 14.0259 14.3862 11.6113 17.0231 10.8894ZM17.4143 24.8935C17.5061 25.1537 17.6764 25.379 17.9016 25.5384C18.1268 25.6977 18.3959 25.7833 18.6719 25.7833C18.9478 25.7833 19.2169 25.6977 19.4421 25.5384C19.6673 25.379 19.8376 25.1537 19.9294 24.8935H17.4134H17.4143ZM18.6714 12.447C17.4925 12.447 16.3618 12.9153 15.5282 13.749C14.6945 14.5826 14.2262 15.7132 14.2262 16.8922V21.3374C14.2263 21.513 14.1743 21.6847 14.0769 21.8308L13.2207 23.1155H24.1212L23.2651 21.8308C23.168 21.6846 23.1163 21.5129 23.1166 21.3374V16.8922C23.1166 15.7132 22.6483 14.5826 21.8146 13.749C20.981 12.9153 19.8503 12.447 18.6714 12.447Z" fill="#B3B3B3"/>
<rect x="0.5" y="0.5" width="37" height="37" rx="4.5" stroke="#919191"/>
</svg>
