<svg width="16" height="17" viewBox="0 0 16 17" fill="none" xmlns="http://www.w3.org/2000/svg">
<g id="bi:person-workspace" clip-path="url(#clip0_71_17977)">
<g id="Group">
<path id="Vector" d="M4 16.75C4 16.75 3 16.75 3 15.75C3 14.75 4 11.75 8 11.75C12 11.75 13 14.75 13 15.75C13 16.75 12 16.75 12 16.75H4ZM8 10.8C8.66304 10.8 9.29893 10.5367 9.76777 10.0678C10.2366 9.59897 10.5 8.96309 10.5 8.30005C10.5 7.63701 10.2366 7.00112 9.76777 6.53228C9.29893 6.06344 8.66304 5.80005 8 5.80005C7.33696 5.80005 6.70107 6.06344 6.23223 6.53228C5.76339 7.00112 5.5 7.63701 5.5 8.30005C5.5 8.96309 5.76339 9.59897 6.23223 10.0678C6.70107 10.5367 7.33696 10.8 8 10.8Z" fill="#964B00"/>
<path id="Vector_2" d="M2 1.75C1.46957 1.75 0.960859 1.96071 0.585786 2.33579C0.210714 2.71086 0 3.21957 0 3.75L0 13.25C0 13.6478 0.158035 14.0294 0.43934 14.3107C0.720644 14.592 1.10218 14.75 1.5 14.75H2.153C2.36209 14.0151 2.72551 13.3333 3.219 12.75H1V3.75C1 3.48478 1.10536 3.23043 1.29289 3.04289C1.48043 2.85536 1.73478 2.75 2 2.75H14C14.2652 2.75 14.5196 2.85536 14.7071 3.04289C14.8946 3.23043 15 3.48478 15 3.75V12.75H12.781C13.335 13.404 13.671 14.123 13.847 14.75H14.5C14.8978 14.75 15.2794 14.592 15.5607 14.3107C15.842 14.0294 16 13.6478 16 13.25V3.75C16 3.21957 15.7893 2.71086 15.4142 2.33579C15.0391 1.96071 14.5304 1.75 14 1.75H2Z" fill="#964B00"/>
</g>
</g>
<defs>
<clipPath id="clip0_71_17977">
<rect width="16" height="16" fill="white" transform="translate(0 0.75)"/>
</clipPath>
</defs>
</svg>
