<svg width="24" height="25" viewBox="0 0 24 25" fill="none" xmlns="http://www.w3.org/2000/svg">
<g id="bi:person-fill">
<path id="Vector" d="M4.5 21.1666C4.5 21.1666 3 21.1666 3 19.6666C3 18.1666 4.5 13.6666 12 13.6666C19.5 13.6666 21 18.1666 21 19.6666C21 21.1666 19.5 21.1666 19.5 21.1666H4.5ZM12 12.1666C13.1935 12.1666 14.3381 11.6925 15.182 10.8486C16.0259 10.0047 16.5 8.8601 16.5 7.66663C16.5 6.47315 16.0259 5.32856 15.182 4.48465C14.3381 3.64073 13.1935 3.16663 12 3.16663C10.8065 3.16663 9.66193 3.64073 8.81802 4.48465C7.97411 5.32856 7.5 6.47315 7.5 7.66663C7.5 8.8601 7.97411 10.0047 8.81802 10.8486C9.66193 11.6925 10.8065 12.1666 12 12.1666Z" fill="#808080"/>
</g>
</svg>
