<svg width="24" height="25" viewBox="0 0 24 25" fill="none" xmlns="http://www.w3.org/2000/svg">
<g id="material-symbols:phone-in-talk">
<path id="Vector" d="M19 12.4498C19 10.4998 18.3207 8.84583 16.962 7.48783C15.6033 6.12983 13.9493 5.4505 12 5.44983V3.44983C13.25 3.44983 14.421 3.6875 15.513 4.16283C16.605 4.63816 17.555 5.27983 18.363 6.08783C19.171 6.89583 19.8127 7.84583 20.288 8.93783C20.7633 10.0298 21.0007 11.2005 21 12.4498H19ZM15 12.4498C15 11.6165 14.7083 10.9082 14.125 10.3248C13.5417 9.7415 12.8333 9.44983 12 9.44983V7.44983C13.3833 7.44983 14.5627 7.9375 15.538 8.91283C16.5133 9.88816 17.0007 11.0672 17 12.4498H15ZM19.95 21.4998C17.8667 21.4998 15.8083 21.0455 13.775 20.1368C11.7417 19.2282 9.89167 17.9408 8.225 16.2748C6.55833 14.6082 5.271 12.7582 4.363 10.7248C3.455 8.6915 3.00067 6.63316 3 4.54983C3 4.24983 3.1 3.99983 3.3 3.79983C3.5 3.59983 3.75 3.49983 4.05 3.49983H8.1C8.33333 3.49983 8.54167 3.57916 8.725 3.73783C8.90833 3.8965 9.01667 4.08383 9.05 4.29983L9.7 7.79983C9.73333 8.0665 9.725 8.2915 9.675 8.47483C9.625 8.65816 9.53333 8.8165 9.4 8.94983L6.975 11.3998C7.30833 12.0165 7.704 12.6122 8.162 13.1868C8.62 13.7615 9.12433 14.3158 9.675 14.8498C10.1917 15.3665 10.7333 15.8458 11.3 16.2878C11.8667 16.7298 12.4667 17.1338 13.1 17.4998L15.45 15.1498C15.6 14.9998 15.796 14.8872 16.038 14.8118C16.28 14.7365 16.5173 14.7158 16.75 14.7498L20.2 15.4498C20.4333 15.5165 20.625 15.6375 20.775 15.8128C20.925 15.9882 21 16.1838 21 16.3998V20.4498C21 20.7498 20.9 20.9998 20.7 21.1998C20.5 21.3998 20.25 21.4998 19.95 21.4998Z" fill="#808080"/>
</g>
</svg>
