<svg width="24" height="25" viewBox="0 0 24 25" fill="none" xmlns="http://www.w3.org/2000/svg">
<g id="mdi:rate-review">
<path id="Vector" d="M18 14.8331H10.5L12.5 12.8331H18M6 14.8331V12.3331L12.88 5.47313C13.07 5.28313 13.39 5.28313 13.59 5.47313L15.35 7.24313C15.55 7.44313 15.55 7.75313 15.35 7.95313L8.47 14.8331M20 2.83313H4C3.46957 2.83313 2.96086 3.04384 2.58579 3.41892C2.21071 3.79399 2 4.3027 2 4.83313V22.8331L6 18.8331H20C20.5304 18.8331 21.0391 18.6224 21.4142 18.2473C21.7893 17.8723 22 17.3636 22 16.8331V4.83313C22 4.3027 21.7893 3.79399 21.4142 3.41892C21.0391 3.04384 20.5304 2.83313 20 2.83313Z" fill="#808080"/>
</g>
</svg>
