<svg width="38" height="38" viewBox="0 0 38 38" fill="none" xmlns="http://www.w3.org/2000/svg">
<g clip-path="url(#clip0_2_13967)">
<path d="M19.6282 9.77942C19.8895 9.77942 20.1234 9.94211 20.2114 10.1857L20.839 11.9256C21.064 11.9816 21.2569 12.0376 21.4205 12.0963C21.5992 12.1603 21.8294 12.2572 22.1139 12.3896L23.5755 11.6162C23.6948 11.553 23.8314 11.5302 23.9647 11.5512C24.0981 11.5722 24.2211 11.6358 24.3152 11.7326L25.6007 13.0618C25.7714 13.2387 25.8194 13.4974 25.7234 13.7232L25.038 15.3297C25.1518 15.5386 25.2424 15.7173 25.3118 15.8667C25.3865 16.0294 25.4789 16.2534 25.5892 16.5423L27.1868 17.2269C27.4268 17.3291 27.5753 17.5692 27.5593 17.8261L27.4419 19.6709C27.4339 19.7907 27.3909 19.9056 27.3182 20.0012C27.2455 20.0968 27.1463 20.169 27.033 20.2087L25.5198 20.7466C25.4763 20.9555 25.4309 21.1342 25.3829 21.2854C25.3055 21.5188 25.2171 21.7484 25.118 21.9735L25.8781 23.6538C25.9318 23.7718 25.9462 23.904 25.9193 24.0308C25.8924 24.1577 25.8257 24.2726 25.7287 24.3588L24.2832 25.6497C24.188 25.7343 24.0692 25.7879 23.9427 25.8031C23.8162 25.8184 23.6881 25.7946 23.5755 25.735L22.0855 24.9455C21.8523 25.069 21.6118 25.1779 21.3653 25.2718L20.7146 25.5154L20.1367 27.1157C20.0939 27.2329 20.0166 27.3344 19.9151 27.4069C19.8135 27.4794 19.6924 27.5195 19.5677 27.522L17.8785 27.5602C17.7505 27.5636 17.6245 27.5272 17.518 27.456C17.4115 27.3848 17.3297 27.2824 17.2838 27.1628L16.6028 25.3607C16.3704 25.2813 16.1403 25.1953 15.9129 25.1029C15.7268 25.0224 15.5435 24.9355 15.3634 24.8424L13.6743 25.5643C13.563 25.6118 13.4403 25.6259 13.3211 25.6049C13.2019 25.5839 13.0914 25.5287 13.003 25.4461L11.753 24.2734C11.66 24.1865 11.5966 24.0725 11.5719 23.9476C11.5471 23.8227 11.5623 23.6931 11.6152 23.5773L12.3416 21.9948C12.245 21.8074 12.1554 21.6164 12.0731 21.4223C11.977 21.1847 11.8881 20.9442 11.8064 20.7013L10.215 20.2167C10.0857 20.1776 9.97283 20.0969 9.89406 19.9871C9.81528 19.8773 9.77497 19.7446 9.77938 19.6095L9.84161 17.9017C9.84604 17.7903 9.88085 17.6822 9.94228 17.5891C10.0037 17.496 10.0894 17.4215 10.1901 17.3736L11.8597 16.5717C11.9371 16.2881 12.0046 16.0676 12.0642 15.9067C12.1481 15.6918 12.2412 15.4806 12.3434 15.2737L11.6197 13.7445C11.5648 13.6284 11.5481 13.4979 11.5721 13.3717C11.596 13.2455 11.6594 13.1301 11.753 13.0422L13.0013 11.8633C13.0888 11.7808 13.1982 11.7253 13.3165 11.7036C13.4348 11.6818 13.5569 11.6947 13.668 11.7406L15.3554 12.4376C15.5421 12.3132 15.711 12.2127 15.864 12.1318C16.0462 12.0349 16.2898 11.9336 16.5965 11.8242L17.1833 10.1875C17.2267 10.0677 17.306 9.96424 17.4104 9.8912C17.5147 9.81817 17.6391 9.77913 17.7665 9.77942H19.6282ZM19.1925 11.0036H18.203L17.6652 12.5097C17.6335 12.5975 17.5824 12.677 17.5155 12.7421C17.4487 12.8073 17.3679 12.8564 17.2793 12.8857C16.8917 13.0146 16.6116 13.1258 16.4481 13.212C16.2747 13.3036 16.0533 13.4432 15.7902 13.6298C15.704 13.6903 15.604 13.728 15.4995 13.7395C15.3949 13.751 15.2891 13.7359 15.1919 13.6956L13.5649 13.0244L12.931 13.6236L13.5916 15.0194C13.6311 15.1025 13.6512 15.1934 13.6503 15.2854C13.6494 15.3774 13.6275 15.4679 13.5862 15.5502C13.4084 15.9067 13.2884 16.1698 13.228 16.3316C13.1353 16.601 13.0552 16.8745 12.9879 17.1513C12.9656 17.238 12.9246 17.3187 12.8677 17.3878C12.8109 17.4569 12.7397 17.5127 12.659 17.5514L11.0676 18.3151L11.0356 19.1863L12.4758 19.6238C12.667 19.6815 12.8181 19.8282 12.8812 20.0167C13.0235 20.4434 13.1373 20.7582 13.2191 20.9555C13.3274 21.206 13.4473 21.4513 13.5782 21.6908C13.6225 21.7731 13.6471 21.8647 13.6501 21.9582C13.653 22.0516 13.6342 22.1445 13.5951 22.2295L12.9275 23.6858L13.5596 24.2796L15.1438 23.6022C15.2292 23.5657 15.3216 23.5487 15.4143 23.5524C15.507 23.5561 15.5978 23.5804 15.6799 23.6235C16.0044 23.7942 16.2463 23.9125 16.3992 23.9774C16.5547 24.0423 16.8526 24.1507 17.2846 24.2983C17.3704 24.3276 17.4487 24.3755 17.5138 24.4385C17.579 24.5015 17.6294 24.5781 17.6616 24.6628L18.291 26.3262L19.1143 26.3084L19.645 24.838C19.6754 24.7541 19.7236 24.6778 19.7864 24.6144C19.8492 24.5509 19.9251 24.502 20.0087 24.4708L20.9306 24.1258C21.1635 24.0396 21.4462 23.9036 21.7761 23.7169C21.8674 23.6656 21.9701 23.6381 22.0748 23.6368C22.1795 23.6356 22.2828 23.6607 22.3753 23.7098L23.7773 24.4521L24.5659 23.7489L23.876 22.226C23.8406 22.1478 23.8222 22.063 23.822 21.9771C23.8218 21.8913 23.8399 21.8064 23.8751 21.7281C24.0369 21.3663 24.1463 21.0933 24.2014 20.9191C24.2556 20.7484 24.3116 20.5021 24.3658 20.1856C24.3845 20.0781 24.4315 19.9775 24.502 19.8942C24.5724 19.8109 24.6639 19.748 24.7668 19.7118L26.2319 19.1917L26.2959 18.1782L24.8557 17.5612C24.779 17.5285 24.7098 17.4807 24.6522 17.4204C24.5945 17.3602 24.5498 17.2889 24.5205 17.2109C24.4178 16.9275 24.3057 16.6476 24.1845 16.3716C24.0697 16.1314 23.9451 15.8959 23.8111 15.6657C23.7647 15.5844 23.7377 15.4935 23.7323 15.4C23.7269 15.3066 23.7432 15.2131 23.78 15.127L24.4245 13.6156L23.7453 12.9133L22.4224 13.6138C22.336 13.6597 22.2401 13.6846 22.1424 13.6866C22.0447 13.6886 21.9478 13.6676 21.8596 13.6254C21.5789 13.4858 21.2917 13.3594 20.9991 13.2467C20.7495 13.1629 20.4951 13.0946 20.2371 13.0422C20.1348 13.0205 20.0397 12.9731 19.9607 12.9045C19.8816 12.836 19.8214 12.7484 19.7855 12.6501L19.1916 11.0027L19.1925 11.0036ZM18.6911 14.7945C20.8559 14.7945 22.6118 16.5308 22.6118 18.6716C22.6118 20.8124 20.8559 22.5478 18.6911 22.5478C16.5254 22.5478 14.7704 20.8124 14.7704 18.6716C14.7704 16.5308 16.5254 14.7954 18.6911 14.7954V14.7945ZM18.6911 16.0196C17.2091 16.0196 16.008 17.2065 16.008 18.6716C16.008 20.1367 17.2091 21.3245 18.6911 21.3245C20.1722 21.3245 21.3733 20.1367 21.3733 18.6716C21.3733 17.2065 20.1731 16.0196 18.6911 16.0196Z" fill="#B3B3B3"/>
</g>
<rect x="0.5" y="0.5" width="37" height="37" rx="4.5" stroke="#909090"/>
<defs>
<clipPath id="clip0_2_13967">
<rect width="17.7808" height="17.7808" fill="white" transform="translate(9.77954 9.77942)"/>
</clipPath>
</defs>
</svg>
