<svg width="24" height="25" viewBox="0 0 24 25" fill="none" xmlns="http://www.w3.org/2000/svg">
<g id="Icons/Dashboard">
<g id="Group 35163">
<path id="Vector" d="M9.54242 20.4667C9.95269 20.4667 10.2853 20.1341 10.2853 19.7238C10.2853 19.3135 9.95269 18.981 9.54242 18.981C9.13215 18.981 8.79956 19.3135 8.79956 19.7238C8.79956 20.1341 9.13215 20.4667 9.54242 20.4667Z" stroke="#808080" stroke-width="3" stroke-linecap="round" stroke-linejoin="round"/>
<path id="Vector_2" d="M17.7136 20.4667C18.1238 20.4667 18.4564 20.1341 18.4564 19.7238C18.4564 19.3135 18.1238 18.981 17.7136 18.981C17.3033 18.981 16.9707 19.3135 16.9707 19.7238C16.9707 20.1341 17.3033 20.4667 17.7136 20.4667Z" stroke="#808080" stroke-width="3" stroke-linecap="round" stroke-linejoin="round"/>
<path id="Vector_3" d="M3.59961 4.8667H6.57104L8.5619 14.8136C8.62983 15.1556 8.81588 15.4628 9.0875 15.6814C9.35912 15.9001 9.69898 16.0162 10.0476 16.0096H17.2682C17.6168 16.0162 17.9567 15.9001 18.2283 15.6814C18.4999 15.4628 18.686 15.1556 18.7539 14.8136L19.9425 8.58098H7.3139" stroke="#808080" stroke-width="3" stroke-linecap="round" stroke-linejoin="round"/>
</g>
</g>
</svg>
